<svg width="300" height="300" xmlns="http://www.w3.org/2000/svg" preserveAspectRatio="xMidYMid meet" version="1.0">

 <g>
  <title>Layer 1</title>
  <rect stroke-width="0" id="svg_15" height="250.52632" width="270.17544" y="24.73684" x="15.61404" stroke="#000" fill="#ffffff"/>
  <g id="svg_1" fill="#008db1" transform="translate(0.000000,300.000000) scale(0.100000,-0.100000)">
   <path id="svg_2" d="m0,1500l0,-1500l1500,0l1500,0l0,1500l0,1500l-1500,0l-1500,0l0,-1500zm940,995c88,-30 100,-39 100,-76c0,-25 5,-29 54,-43c89,-26 133,-21 220,24c66,35 86,40 141,40c38,0 105,-11 162,-26c99,-27 222,-36 275,-22c19,6 25,13 21,26c-2,11 2,26 11,35c21,21 169,69 189,62c18,-8 13,3 83,-195c31,-85 68,-190 85,-233c16,-43 29,-87 29,-96c0,-27 -28,-46 -99,-70c-74,-24 -102,-26 -119,-9c-10,10 -19,6 -43,-19l-31,-31l20,-28c21,-29 25,-48 23,-92c-1,-31 -44,-72 -74,-72c-20,0 -26,-6 -31,-33c-8,-45 -45,-77 -95,-84c-23,-3 -41,-9 -41,-14c0,-4 -12,-21 -26,-38c-32,-38 -78,-48 -127,-27c-33,13 -37,13 -37,0c0,-9 -13,-29 -29,-45c-40,-40 -88,-39 -153,2c-37,24 -52,29 -61,20c-29,-29 -117,-2 -117,37c0,10 -7,13 -21,9c-34,-9 -76,12 -89,44c-9,20 -19,29 -35,29c-27,0 -72,33 -80,60c-4,11 -14,20 -24,20c-26,0 -71,45 -71,72c0,13 6,34 13,48c14,26 10,33 -84,143c-3,5 -16,3 -28,-5c-18,-11 -33,-9 -108,17c-47,17 -91,38 -97,48c-11,18 -4,45 69,242c18,50 48,132 66,183c32,93 49,122 73,122c7,0 45,-11 86,-25zm-342,-1267c9,-9 12,-69 12,-210l0,-198l89,0c94,0 121,-11 121,-49c0,-35 -20,-41 -152,-41c-116,0 -128,2 -138,19c-6,12 -10,108 -10,243c0,235 2,248 45,248c12,0 26,-5 33,-12zm563,-16c6,-17 4,-27 -11,-42c-17,-17 -34,-20 -105,-20l-85,0l0,-60l0,-60l88,0c48,0 93,-4 101,-9c7,-5 14,-21 14,-36c0,-15 -7,-31 -14,-36c-8,-5 -53,-9 -101,-9l-88,0l0,-60l0,-59l91,-3c79,-3 93,-6 104,-23c9,-13 10,-28 4,-42c-8,-22 -13,-23 -138,-23c-123,0 -131,1 -145,22c-13,19 -16,59 -16,233c0,274 -11,256 162,253c126,-3 131,-4 139,-26zm397,16c18,-18 14,-56 -7,-68c-11,-5 -40,-10 -65,-10l-46,0l0,-191c0,-112 -4,-198 -10,-210c-12,-21 -50,-25 -68,-7c-9,9 -12,69 -12,210l0,198l-52,0c-72,0 -112,42 -76,78c17,17 319,17 336,0zm140,0c5,-7 42,-83 81,-168c40,-85 75,-158 80,-163c4,-4 43,68 86,160c43,93 83,171 89,175c18,12 44,9 60,-8c14,-13 16,-49 16,-235c0,-133 -4,-228 -10,-240c-12,-21 -50,-25 -68,-7c-8,8 -12,49 -12,120c0,59 -4,108 -8,108c-4,0 -32,-52 -61,-115c-42,-89 -59,-117 -77,-121c-12,-3 -28,-3 -35,2c-6,4 -38,61 -70,128l-58,121l0,-108c-1,-60 -6,-117 -11,-128c-12,-21 -50,-25 -68,-7c-17,17 -17,469 0,486c16,16 53,15 66,0zm740,0c18,-18 14,-56 -7,-68c-11,-5 -58,-10 -105,-10l-86,0l0,-60l0,-60l93,0c98,0 117,-7 117,-45c0,-38 -19,-45 -117,-45l-93,0l0,-60l0,-60l93,0c59,0 97,-4 105,-12c15,-15 15,-51 0,-66c-17,-17 -259,-17 -276,0c-17,17 -17,469 0,486c17,17 259,17 276,0zm-1486,-607c29,-25 32,-34 32,-85c1,-53 -2,-60 -32,-87c-26,-24 -41,-29 -82,-29l-50,0l0,108c0,60 3,112 7,115c3,4 26,7 50,7c33,0 50,-6 75,-29zm828,-11c0,-13 -7,-20 -20,-20c-13,0 -20,7 -20,20c0,13 7,20 20,20c13,0 20,-7 20,-20zm330,-25c0,-8 9,-15 20,-15c11,0 20,-4 20,-10c0,-5 -9,-10 -20,-10c-18,0 -20,-7 -20,-55c0,-42 3,-55 15,-55c8,0 15,-4 15,-10c0,-5 -14,-10 -30,-10c-24,0 -33,6 -40,26c-16,41 -12,115 7,136c20,22 33,23 33,3zm-676,-36c72,-57 -15,-167 -91,-114c-29,20 -37,59 -18,94c23,46 66,54 109,20zm346,-54c0,-68 -2,-75 -20,-75c-18,0 -20,7 -20,75c0,68 2,75 20,75c18,0 20,-7 20,-75z"/>
   <path id="svg_3" d="m818,2367c-127,-351 -132,-368 -117,-378c24,-15 28,-10 17,22c-9,26 -7,33 13,55c29,31 65,28 91,-7c16,-22 17,-29 7,-52c-6,-14 -24,-30 -38,-35l-26,-10l28,-7c15,-4 29,-6 31,-4c2,4 64,174 131,363c19,55 35,103 35,107c0,8 -103,49 -123,49c-7,0 -29,-46 -49,-103z"/>
   <path id="svg_4" d="m2020,2448c-30,-11 -57,-22 -59,-24c-2,-2 14,-54 37,-116c22,-62 57,-160 77,-218c21,-58 41,-115 46,-127c7,-20 11,-21 40,-11l32,11l-34,11c-31,10 -34,14 -34,51c0,34 4,42 28,53c24,12 31,11 53,-2c26,-18 34,-72 13,-93c-9,-9 -6,-10 10,-6c13,3 25,11 27,18c3,6 -16,70 -41,141c-26,71 -62,175 -82,232c-19,56 -40,102 -46,101c-7,0 -37,-9 -67,-21z"/>
   <path id="svg_5" d="m1405,2391c-16,-4 -47,-16 -67,-27c-42,-22 -188,-175 -188,-197c0,-36 95,-27 151,16c59,43 102,60 154,60c66,0 54,8 379,-245l138,-108l48,40l49,41l-51,142c-28,78 -57,163 -66,189l-16,48l-86,-7c-93,-6 -184,6 -289,38c-65,20 -104,22 -156,10z"/>
   <path id="svg_6" d="m998,2303c-9,-27 -38,-112 -66,-190l-50,-141l32,-31c18,-18 46,-49 62,-70c26,-35 32,-38 65,-34c31,5 42,1 66,-23c19,-20 36,-27 55,-25c30,3 78,-36 78,-64c0,-10 10,-15 30,-15c36,0 80,-39 80,-70c0,-14 6,-20 23,-20c13,0 34,-10 46,-21c19,-18 22,-29 18,-64c-4,-41 -3,-44 33,-64c45,-25 83,-27 104,-5c31,31 19,49 -66,98c-51,29 -56,37 -34,55c11,9 36,-2 116,-49c109,-64 139,-71 170,-40c30,30 15,49 -89,105c-59,33 -91,56 -91,67c0,25 18,32 43,15c13,-8 64,-38 115,-66c106,-59 146,-65 164,-25c17,37 6,49 -107,114c-71,41 -101,64 -103,79c-2,12 2,21 9,21c6,0 60,-27 118,-61c127,-73 162,-82 185,-46c24,36 8,65 -71,128c-213,168 -392,305 -421,322c-47,28 -99,18 -179,-34c-53,-35 -76,-44 -123,-47c-53,-4 -61,-2 -84,21c-39,39 -34,70 24,131c27,29 47,56 43,59c-3,4 -23,7 -43,7c-21,0 -57,7 -80,15c-23,8 -46,15 -49,15c-4,0 -14,-21 -23,-47z"/>
   <path id="svg_7" d="m755,2040c-8,-14 3,-30 21,-30c8,0 14,9 14,20c0,21 -24,28 -35,10z"/>
   <path id="svg_8" d="m2164,2035c-3,-8 -3,-19 1,-25c10,-16 35,7 28,26c-7,18 -22,18 -29,-1z"/>
   <path id="svg_9" d="m1025,1774c-29,-31 -33,-62 -8,-71c10,-4 24,3 40,21c27,31 29,49 8,66c-12,10 -19,7 -40,-16z"/>
   <path id="svg_10" d="m1121,1703c-35,-42 -38,-55 -16,-73c31,-26 101,52 79,88c-18,27 -31,24 -63,-15z"/>
   <path id="svg_11" d="m1253,1654c-20,-8 -55,-73 -49,-89c9,-25 43,-17 70,16c29,35 34,64 10,73c-9,3 -16,6 -17,5c-1,0 -7,-3 -14,-5z"/>
   <path id="svg_12" d="m1346,1564c-29,-29 -38,-54 -25,-70c19,-23 36,-17 59,21c18,29 20,38 10,50c-16,19 -25,19 -44,-1z"/>
   <path id="svg_13" d="m870,531c0,-96 1,-99 21,-94c64,17 58,193 -7,193c-11,0 -14,-20 -14,-99z"/>
   <path id="svg_14" d="m1366,534c-9,-23 -7,-67 3,-83c13,-20 39,-6 47,24c12,49 -33,103 -50,59z"/>
  </g>
 </g>
</svg>